<mxfile host="app.diagrams.net" modified="2024-05-13T01:16:14.631Z" agent="Mozilla/5.0 (Windows NT 10.0; Win64; x64) AppleWebKit/537.36 (KHTML, like Gecko) Chrome/124.0.0.0 Safari/537.36" etag="YpyOB73yWUu3oarT5a-K" version="24.4.0" type="github">
  <diagram id="F7FPPXRM3CXVGJpaSQDx" name="EXERCISE-5">
    <mxGraphModel dx="1120" dy="434" grid="1" gridSize="10" guides="1" tooltips="1" connect="1" arrows="1" fold="1" page="1" pageScale="1" pageWidth="827" pageHeight="1169" math="0" shadow="0">
      <root>
        <mxCell id="0" />
        <mxCell id="1" parent="0" />
        <mxCell id="dAYIDxJeB2outA4cZ8_5-5" value="" style="edgeStyle=orthogonalEdgeStyle;rounded=0;orthogonalLoop=1;jettySize=auto;html=1;" parent="1" source="dAYIDxJeB2outA4cZ8_5-1" target="dAYIDxJeB2outA4cZ8_5-4" edge="1">
          <mxGeometry relative="1" as="geometry" />
        </mxCell>
        <mxCell id="dAYIDxJeB2outA4cZ8_5-1" value="INICIO" style="rounded=1;whiteSpace=wrap;html=1;" parent="1" vertex="1">
          <mxGeometry x="364" y="50" width="100" height="50" as="geometry" />
        </mxCell>
        <mxCell id="CGPRdtdw-pQylkerUUIa-2" value="" style="edgeStyle=orthogonalEdgeStyle;rounded=0;orthogonalLoop=1;jettySize=auto;html=1;" parent="1" source="dAYIDxJeB2outA4cZ8_5-4" target="CGPRdtdw-pQylkerUUIa-1" edge="1">
          <mxGeometry relative="1" as="geometry" />
        </mxCell>
        <mxCell id="dAYIDxJeB2outA4cZ8_5-4" value="character" style="shape=parallelogram;perimeter=parallelogramPerimeter;whiteSpace=wrap;html=1;fixedSize=1;" parent="1" vertex="1">
          <mxGeometry x="361" y="130" width="106" height="40" as="geometry" />
        </mxCell>
        <mxCell id="jU6bj02I5XMHIUQaVEk1-4" value="" style="edgeStyle=orthogonalEdgeStyle;rounded=0;orthogonalLoop=1;jettySize=auto;html=1;" parent="1" source="CGPRdtdw-pQylkerUUIa-1" target="jU6bj02I5XMHIUQaVEk1-3" edge="1">
          <mxGeometry relative="1" as="geometry" />
        </mxCell>
        <mxCell id="arQWR0GI_ZE0FVHVaRKN-17" value="" style="edgeStyle=orthogonalEdgeStyle;rounded=0;orthogonalLoop=1;jettySize=auto;html=1;" parent="1" source="CGPRdtdw-pQylkerUUIa-1" target="arQWR0GI_ZE0FVHVaRKN-16" edge="1">
          <mxGeometry relative="1" as="geometry" />
        </mxCell>
        <mxCell id="CGPRdtdw-pQylkerUUIa-1" value="char &amp;gt;= 65 y char&amp;lt;=122" style="rhombus;whiteSpace=wrap;html=1;" parent="1" vertex="1">
          <mxGeometry x="356" y="200" width="116" height="90" as="geometry" />
        </mxCell>
        <mxCell id="arQWR0GI_ZE0FVHVaRKN-6" value="" style="edgeStyle=orthogonalEdgeStyle;rounded=0;orthogonalLoop=1;jettySize=auto;html=1;" parent="1" source="jU6bj02I5XMHIUQaVEk1-3" target="arQWR0GI_ZE0FVHVaRKN-5" edge="1">
          <mxGeometry relative="1" as="geometry" />
        </mxCell>
        <mxCell id="arQWR0GI_ZE0FVHVaRKN-12" value="" style="edgeStyle=orthogonalEdgeStyle;rounded=0;orthogonalLoop=1;jettySize=auto;html=1;" parent="1" source="jU6bj02I5XMHIUQaVEk1-3" target="arQWR0GI_ZE0FVHVaRKN-11" edge="1">
          <mxGeometry relative="1" as="geometry" />
        </mxCell>
        <mxCell id="jU6bj02I5XMHIUQaVEk1-3" value="char &amp;gt;= 97 y char&amp;lt;=122" style="rhombus;whiteSpace=wrap;html=1;" parent="1" vertex="1">
          <mxGeometry x="356" y="355" width="116" height="90" as="geometry" />
        </mxCell>
        <mxCell id="HXt4q_YyVjC4yvHGMTx0-6" value="FIN" style="rounded=1;whiteSpace=wrap;html=1;" parent="1" vertex="1">
          <mxGeometry x="740" y="232.5" width="70" height="25" as="geometry" />
        </mxCell>
        <mxCell id="HXt4q_YyVjC4yvHGMTx0-8" value="FIN" style="rounded=1;whiteSpace=wrap;html=1;" parent="1" vertex="1">
          <mxGeometry x="750" y="385" width="60" height="30" as="geometry" />
        </mxCell>
        <mxCell id="HXt4q_YyVjC4yvHGMTx0-10" value="FIN" style="rounded=1;whiteSpace=wrap;html=1;" parent="1" vertex="1">
          <mxGeometry x="371" y="600" width="85.5" height="35" as="geometry" />
        </mxCell>
        <mxCell id="arQWR0GI_ZE0FVHVaRKN-1" value="SI" style="text;strokeColor=none;align=center;fillColor=none;html=1;verticalAlign=middle;whiteSpace=wrap;rounded=0;" parent="1" vertex="1">
          <mxGeometry x="475" y="370" width="60" height="30" as="geometry" />
        </mxCell>
        <mxCell id="arQWR0GI_ZE0FVHVaRKN-2" value="SI" style="text;strokeColor=none;align=center;fillColor=none;html=1;verticalAlign=middle;whiteSpace=wrap;rounded=0;" parent="1" vertex="1">
          <mxGeometry x="472" y="210" width="60" height="30" as="geometry" />
        </mxCell>
        <mxCell id="arQWR0GI_ZE0FVHVaRKN-3" value="NO" style="text;strokeColor=none;align=center;fillColor=none;html=1;verticalAlign=middle;whiteSpace=wrap;rounded=0;" parent="1" vertex="1">
          <mxGeometry x="354" y="310" width="60" height="30" as="geometry" />
        </mxCell>
        <mxCell id="arQWR0GI_ZE0FVHVaRKN-4" value="NO" style="text;strokeColor=none;align=center;fillColor=none;html=1;verticalAlign=middle;whiteSpace=wrap;rounded=0;" parent="1" vertex="1">
          <mxGeometry x="351" y="460" width="60" height="30" as="geometry" />
        </mxCell>
        <mxCell id="arQWR0GI_ZE0FVHVaRKN-7" value="" style="edgeStyle=orthogonalEdgeStyle;rounded=0;orthogonalLoop=1;jettySize=auto;html=1;" parent="1" source="arQWR0GI_ZE0FVHVaRKN-5" target="HXt4q_YyVjC4yvHGMTx0-10" edge="1">
          <mxGeometry relative="1" as="geometry" />
        </mxCell>
        <mxCell id="arQWR0GI_ZE0FVHVaRKN-5" value="not an alphabet" style="shape=parallelogram;perimeter=parallelogramPerimeter;whiteSpace=wrap;html=1;fixedSize=1;" parent="1" vertex="1">
          <mxGeometry x="351" y="510" width="126" height="30" as="geometry" />
        </mxCell>
        <mxCell id="arQWR0GI_ZE0FVHVaRKN-13" value="" style="edgeStyle=orthogonalEdgeStyle;rounded=0;orthogonalLoop=1;jettySize=auto;html=1;" parent="1" source="arQWR0GI_ZE0FVHVaRKN-11" target="HXt4q_YyVjC4yvHGMTx0-8" edge="1">
          <mxGeometry relative="1" as="geometry" />
        </mxCell>
        <mxCell id="arQWR0GI_ZE0FVHVaRKN-11" value="&quot;lower-case alphabet&quot;" style="shape=parallelogram;perimeter=parallelogramPerimeter;whiteSpace=wrap;html=1;fixedSize=1;" parent="1" vertex="1">
          <mxGeometry x="535" y="380" width="170" height="40" as="geometry" />
        </mxCell>
        <mxCell id="arQWR0GI_ZE0FVHVaRKN-18" value="" style="edgeStyle=orthogonalEdgeStyle;rounded=0;orthogonalLoop=1;jettySize=auto;html=1;" parent="1" source="arQWR0GI_ZE0FVHVaRKN-16" target="HXt4q_YyVjC4yvHGMTx0-6" edge="1">
          <mxGeometry relative="1" as="geometry" />
        </mxCell>
        <mxCell id="arQWR0GI_ZE0FVHVaRKN-16" value="&quot;upper-case alphabet&quot;" style="shape=parallelogram;perimeter=parallelogramPerimeter;whiteSpace=wrap;html=1;fixedSize=1;" parent="1" vertex="1">
          <mxGeometry x="540" y="222.5" width="160" height="45" as="geometry" />
        </mxCell>
      </root>
    </mxGraphModel>
  </diagram>
</mxfile>
